<svg width="32" height="32" viewBox="0 0 32 32" fill="none" xmlns="http://www.w3.org/2000/svg">
  <defs>
    <linearGradient id="fav" x1="0" y1="0" x2="1" y2="1">
      <stop offset="0%" stop-color="#0064E0"/>
      <stop offset="100%" stop-color="#00C6FF"/>
    </linearGradient>
  </defs>
  <rect width="32" height="32" rx="7" fill="#ffffff"/>
  <path d="M11 7c-4 0-7 3.8-7 8.4C4 19 5.6 21.5 8 21.5c1.6 0 2.8-.8 4.4-3.2 1.2-2 2.4-4.4 3.2-6C13.9 10.2 12.4 7 11 7Z" fill="url(#fav)"/>
  <path d="M21 7c-1.6 0-2.8.8-4.4 3.2-1.2 2-2.4 4.4-3.2 6C14.9 18.8 16.4 21.5 18 21.5c4 0 7-3.8 7-8.4C25 9.5 23.4 7 21 7Z" fill="url(#fav)"/>
</svg>
